<svg id="visual" viewBox="0 0 900 600" width="900" height="600" xmlns="http://www.w3.org/2000/svg" xmlns:xlink="http://www.w3.org/1999/xlink" version="1.1"><rect width="900" height="600" fill="#e0e0e0"></rect><g><g transform="translate(408 309)"><path d="M0 -147L127.3 -73.5L127.3 73.5L0 147L-127.3 73.5L-127.3 -73.5Z" fill="none" stroke="#5a5a5a" stroke-width="20"></path></g><g transform="translate(76 366)"><path d="M0 -122L105.7 -61L105.7 61L0 122L-105.7 61L-105.7 -61Z" fill="none" stroke="#5a5a5a" stroke-width="20"></path></g><g transform="translate(143 75)"><path d="M0 -82L71 -41L71 41L0 82L-71 41L-71 -41Z" fill="none" stroke="#5a5a5a" stroke-width="20"></path></g><g transform="translate(894 128)"><path d="M0 -87L75.3 -43.5L75.3 43.5L0 87L-75.3 43.5L-75.3 -43.5Z" fill="none" stroke="#5a5a5a" stroke-width="20"></path></g><g transform="translate(801 508)"><path d="M0 -109L94.4 -54.5L94.4 54.5L0 109L-94.4 54.5L-94.4 -54.5Z" fill="none" stroke="#5a5a5a" stroke-width="20"></path></g></g></svg>